HIERARCHY
ROOT hip
{
  OFFSET 0 0 0
  CHANNELS 6 Xposition Yposition Zposition Zrotation Yrotation Xrotation
  JOINT abdomen
  {
    OFFSET 0 20.6881 -0.73152
    CHANNELS 3 Zrotation Xrotation Yrotation
    JOINT chest
    {
      OFFSET 0 11.7043 -0.48768
      CHANNELS 3 Zrotation Xrotation Yrotation
      JOINT neck
      {
        OFFSET 0 22.1894 -2.19456
        CHANNELS 3 Zrotation Xrotation Yrotation
        JOINT head
        {
          OFFSET -0.24384 7.07133 1.2192
          CHANNELS 3 Zrotation Xrotation Yrotation
          JOINT leftEye
          {
            OFFSET 4.14528 8.04674 8.04672
            CHANNELS 3 Zrotation Xrotation Yrotation
            End Site
            {
              OFFSET 1 0 0
            }
          }
          JOINT rightEye
          {
            OFFSET -3.6576 8.04674 8.04672
            CHANNELS 3 Zrotation Xrotation Yrotation
            End Site
            {
              OFFSET 1 0 0
            }
          }
        }
      }
      JOINT rCollar
      {
        OFFSET -2.68224 19.2634 -4.8768
        CHANNELS 3 Zrotation Xrotation Yrotation
        JOINT rShldr
        {
          OFFSET -8.77824 -1.95073 1.46304
          CHANNELS 3 Zrotation Xrotation Yrotation
          JOINT rForeArm
          {
            OFFSET -28.1742 -1.7115 0.48768
            CHANNELS 3 Zrotation Xrotation Yrotation
            JOINT rHand
            {
              OFFSET -22.5879 0.773209 7.07136
              CHANNELS 3 Zrotation Xrotation Yrotation
              JOINT rThumb1
              {
                OFFSET -1.2192 -0.487915 3.41376
                CHANNELS 3 Zrotation Xrotation Yrotation
                JOINT rThumb2
                {
                  OFFSET -3.37035 -0.52449 3.41376
                  CHANNELS 3 Zrotation Xrotation Yrotation
                  End Site
                  {
                    OFFSET -1.78271 -1.18214 1.43049
                  }
                }
              }
              JOINT rIndex1
              {
                OFFSET -7.75947 0.938293 5.60832
                CHANNELS 3 Zrotation Xrotation Yrotation
                JOINT rIndex2
                {
                  OFFSET -2.54057 -0.884171 1.56538
                  CHANNELS 3 Zrotation Xrotation Yrotation
                  End Site
                  {
                    OFFSET -1.62519 -0.234802 1.16502
                  }
                }
              }
              JOINT rMid1
              {
                OFFSET -8.24714 1.18213 3.41376
                CHANNELS 3 Zrotation Xrotation Yrotation
                JOINT rMid2
                {
                  OFFSET -3.10165 -0.590103 1.0647
                  CHANNELS 3 Zrotation Xrotation Yrotation
                  End Site
                  {
                    OFFSET -2.48547 -0.328903 0.83742
                  }
                }
              }
              JOINT rRing1
              {
                OFFSET -8.82822 0.546677 1.51678
                CHANNELS 3 Zrotation Xrotation Yrotation
                JOINT rRing2
                {
                  OFFSET -2.60934 -0.819778 -0.0198488
                  CHANNELS 3 Zrotation Xrotation Yrotation
                  End Site
                  {
                    OFFSET -2.33842 -0.294052 0.168128
                  }
                }
              }
              JOINT rPinky1
              {
                OFFSET -8.27202 -0.0477905 -0.4584
                CHANNELS 3 Zrotation Xrotation Yrotation
                JOINT rPinky2
                {
                  OFFSET -1.82734 -0.647385 -0.700984
                  CHANNELS 3 Zrotation Xrotation Yrotation
                  End Site
                  {
                    OFFSET -1.69225 -0.51767 -0.607171
                  }
                }
              }
            }
          }
        }
      }
      JOINT lCollar
      {
        OFFSET 2.68224 19.2634 -4.8768
        CHANNELS 3 Zrotation Xrotation Yrotation
        JOINT lShldr
        {
          OFFSET 8.77824 -1.95073 1.46304
          CHANNELS 3 Zrotation Xrotation Yrotation
          JOINT lForeArm
          {
            OFFSET 28.1742 -1.7115 0.48768
            CHANNELS 3 Zrotation Xrotation Yrotation
            JOINT lHand
            {
              OFFSET 22.5879 0.773209 7.07136
              CHANNELS 3 Zrotation Xrotation Yrotation
              JOINT lThumb1
              {
                OFFSET 1.2192 -0.487915 3.41376
                CHANNELS 3 Zrotation Xrotation Yrotation
                JOINT lThumb2
                {
                  OFFSET 3.37035 -0.52449 3.41376
                  CHANNELS 3 Zrotation Xrotation Yrotation
                  End Site
                  {
                    OFFSET 1.78271 -1.18214 1.43049
                  }
                }
              }
              JOINT lIndex1
              {
                OFFSET 7.75947 0.938293 5.60832
                CHANNELS 3 Zrotation Xrotation Yrotation
                JOINT lIndex2
                {
                  OFFSET 2.54057 -0.884171 1.56538
                  CHANNELS 3 Zrotation Xrotation Yrotation
                  End Site
                  {
                    OFFSET 1.62519 -0.234802 1.16502
                  }
                }
              }
              JOINT lMid1
              {
                OFFSET 8.24714 1.18213 3.41376
                CHANNELS 3 Zrotation Xrotation Yrotation
                JOINT lMid2
                {
                  OFFSET 3.10165 -0.590103 1.0647
                  CHANNELS 3 Zrotation Xrotation Yrotation
                  End Site
                  {
                    OFFSET 2.48547 -0.328903 0.83742
                  }
                }
              }
              JOINT lRing1
              {
                OFFSET 8.82822 0.546677 1.51678
                CHANNELS 3 Zrotation Xrotation Yrotation
                JOINT lRing2
                {
                  OFFSET 2.60934 -0.819778 -0.0198488
                  CHANNELS 3 Zrotation Xrotation Yrotation
                  End Site
                  {
                    OFFSET 2.33842 -0.294052 0.168128
                  }
                }
              }
              JOINT lPinky1
              {
                OFFSET 8.27202 -0.0477905 -0.4584
                CHANNELS 3 Zrotation Xrotation Yrotation
                JOINT lPinky2
                {
                  OFFSET 1.82734 -0.647385 -0.700984
                  CHANNELS 3 Zrotation Xrotation Yrotation
                  End Site
                  {
                    OFFSET 1.69225 -0.51767 -0.607171
                  }
                }
              }
            }
          }
        }
      }
    }
  }
  JOINT rButtock
  {
    OFFSET -8.77824 4.35084 1.2192
    CHANNELS 3 Zrotation Xrotation Yrotation
    JOINT rThigh
    {
      OFFSET 0 -1.70687 -2.19456
      CHANNELS 3 Zrotation Xrotation Yrotation
      JOINT rShin
      {
        OFFSET 0 -36.8199 0.73152
        CHANNELS 3 Zrotation Xrotation Yrotation
        JOINT rFoot
        {
          OFFSET 0.73152 -45.1104 -5.12064
          CHANNELS 3 Zrotation Xrotation Yrotation
          End Site
          {
            OFFSET -1.1221 -3.69964 12.103
          }
        }
      }
    }
  }
  JOINT lButtock
  {
    OFFSET 8.77824 4.35084 1.2192
    CHANNELS 3 Zrotation Xrotation Yrotation
    JOINT lThigh
    {
      OFFSET 0 -1.70687 -2.19456
      CHANNELS 3 Zrotation Xrotation Yrotation
      JOINT lShin
      {
        OFFSET 0 -36.8199 0.73152
        CHANNELS 3 Zrotation Xrotation Yrotation
        JOINT lFoot
        {
          OFFSET -0.73152 -45.1104 -5.12064
          CHANNELS 3 Zrotation Xrotation Yrotation
          End Site
          {
            OFFSET 1.1221 -3.69964 12.103
          }
        }
      }
    }
  }
}
MOTION
Frames:	6
Frame Time:	0.00833333
-15.3252 84.6589 122.381 0.0 0.0 0.0 -0.555336 -0.00305885 -0.0158853 -0.153307 -0.00476082 -0.0265629 -1.06613e-14 -1.59028e-15 -4.96962e-17 -3.20292e-14 3.18055e-15 -1.55301e-16 -0.0 0.0 0.0 -0.0 0.0 0.0 -5.46809e-15 -1.55301e-18 4.96962e-17 -1.09396e-13 1.55301e-16 0.0 -1.94372e-12 5.79855e-13 -6.36111e-15 -2.22421e-11 -5.95956e-13 -1.46306e-13 -5.24689e-11 -4.25812e-14 -3.21236e-13 -9.06096e-11 -7.95139e-14 -5.62163e-13 -5.24617e-11 -3.89618e-14 -3.24417e-13 7.73091 5.47488 0.417314 -5.24674e-11 -4.21423e-14 -3.18055e-13 2.90554 0.965183 0.102902 -5.24516e-11 -4.14466e-14 -3.22031e-13 10.2786 0.731801 0.0259123 -5.24698e-11 -4.45278e-14 -3.18055e-13 2.22167 -0.733487 -0.20892 -5.36602e-15 -3.30014e-18 -1.49089e-16 -1.15693e-13 3.41661e-16 -2.18663e-15 -1.94168e-12 -5.83632e-13 1.27222e-14 -2.22492e-11 5.7009e-13 -1.55847e-13 -5.24776e-11 -3.76644e-14 -3.27597e-13 -9.06283e-11 -6.67917e-14 -5.51031e-13 -5.24859e-11 -3.49861e-14 -3.14875e-13 -7.73091 5.47488 -0.417314 -5.24792e-11 -3.67752e-14 -3.24417e-13 -2.90554 0.965183 -0.102902 -5.24973e-11 -3.65764e-14 -3.20441e-13 -10.2786 0.731801 -0.0259123 -5.24782e-11 -3.85642e-14 -3.27597e-13 -2.22167 -0.733487 0.20892 -2.03217e-16 0.0 -3.88251e-19 0.0643957 -2.35905 -0.0223808 -0.00798354 -1.27853 -0.0684569 -0.484683 3.63779 0.128965 2.03217e-16 0.0 3.88251e-19 -0.910384 -4.50047 0.0764535 0.00202169 2.60027 0.00927564 0.492925 1.9005 -0.09478
-12.8895 82.6 111.344 -174.844 19.1393 178.756 0.231928 -3.05456 -0.965746 0.532281 -0.795043 -0.195262 -1.12101 0.327015 -0.311207 1.16777 4.54032 0.576081 -0.0 0.0 0.0 -0.0 0.0 0.0 -8.63316e-14 -4.20715e-14 -1.61489e-13 18.97 17.5694 6.76584 1.32363 15.8478 -41.2309 0.0222235 -3.30893 -0.462245 -7.57877e-10 3.93513e-10 -7.3755e-10 -1.30324e-09 6.86358e-10 -1.28322e-09 -7.57871e-10 3.93516e-10 -7.37552e-10 7.73091 5.47488 0.417314 -7.57875e-10 3.93514e-10 -7.37548e-10 2.90554 0.965183 0.102902 -7.57862e-10 3.93514e-10 -7.3755e-10 10.2786 0.731801 0.0259123 -7.57877e-10 3.93511e-10 -7.37546e-10 2.22167 -0.733487 -0.20892 -8.62646e-14 -4.20677e-14 -1.61699e-13 6.73163 -17.9911 -18.4415 19.4928 -17.1979 -15.1599 -1.30696 -25.8624 2.42319 -1.01829e-09 -8.72893e-10 5.68739e-10 -1.77465e-09 -1.43877e-09 8.99099e-10 -1.0183e-09 -8.72892e-10 5.68755e-10 -7.73091 5.47488 -0.417314 -1.01829e-09 -8.72892e-10 5.68743e-10 -2.90554 0.965183 -0.102902 -1.0183e-09 -8.72893e-10 5.68745e-10 -10.2786 0.731801 -0.0259123 -1.01829e-09 -8.72893e-10 5.68735e-10 -2.22167 -0.733487 0.20892 -2.03217e-16 0.0 -3.88251e-19 2.79737 -22.1745 -3.04162 0.0566006 21.5531 0.236548 -0.613137 3.41065 -2.33826 2.03217e-16 0.0 3.88251e-19 -2.52808 -6.95337 -0.2729 -0.150576 10.9819 -0.329425 1.1888 -4.69165 4.68472
-12.8794 82.6047 111.341 -174.817 19.1764 178.721 0.952721 -6.27871 -1.98416 1.25547 -1.62792 -0.375178 -2.29711 0.674027 -0.635481 2.29125 9.34097 1.2074 -0.0 0.0 0.0 -0.0 0.0 0.0 -1.71919e-13 -8.88627e-14 -3.25761e-13 33.6353 35.2515 16.3175 17.2206 6.10318 -83.3074 -0.0127584 -6.81627 -0.957469 -1.48185e-09 7.94084e-10 -1.4955e-09 -2.54786e-09 1.38495e-09 -2.60194e-09 -1.48184e-09 7.94085e-10 -1.49551e-09 7.73091 5.47488 0.417314 -1.48185e-09 7.94085e-10 -1.49551e-09 2.90554 0.965183 0.102902 -1.48184e-09 7.94085e-10 -1.49551e-09 10.2786 0.731801 0.0259123 -1.48185e-09 7.94082e-10 -1.4955e-09 2.22167 -0.733487 -0.20892 -1.71888e-13 -8.8853e-14 -3.25982e-13 0.595055 -30.4999 -43.0326 29.3001 -31.1459 -35.4494 1.11331 -53.0102 7.4683 -2.01546e-09 -1.77993e-09 1.15196e-09 -3.5133e-09 -2.93296e-09 1.82118e-09 -2.01547e-09 -1.77993e-09 1.15198e-09 -7.73091 5.47488 -0.417314 -2.01546e-09 -1.77993e-09 1.15196e-09 -2.90554 0.965183 -0.102902 -2.01547e-09 -1.77993e-09 1.15196e-09 -10.2786 0.731801 -0.0259123 -2.01546e-09 -1.77992e-09 1.15195e-09 -2.22167 -0.733487 0.20892 -2.03217e-16 0.0 -3.88251e-19 2.659 -42.9077 -7.88358 -0.235656 45.6854 0.751454 -0.770351 3.16453 -4.94506 2.03217e-16 0.0 3.88251e-19 -4.27471 -9.54015 -0.651548 -0.197879 19.8401 -0.717767 3.13813 -11.5235 9.91567
-12.9046 82.6032 111.34 -174.869 19.1802 178.706 1.49973 -9.14735 -2.89824 1.88948 -2.37552 -0.533063 -3.35236 0.980928 -0.933742 3.22271 13.6154 1.77265 -0.0 0.0 0.0 -0.0 0.0 0.0 -2.48059e-13 -1.26211e-13 -4.84566e-13 39.2895 48.9452 30.2917 22.5669 -24.5388 -104.026 -0.0955561 -9.92417 -1.40546 -2.16869e-09 1.18062e-09 -2.21201e-09 -3.72849e-09 2.05923e-09 -3.84854e-09 -2.16869e-09 1.18062e-09 -2.21201e-09 7.73091 5.47488 0.417314 -2.16869e-09 1.18063e-09 -2.21201e-09 2.90554 0.965183 0.102902 -2.16868e-09 1.18063e-09 -2.21201e-09 10.2786 0.731801 0.0259123 -2.16869e-09 1.18062e-09 -2.212e-09 2.22167 -0.733487 -0.20892 -2.48062e-13 -1.26196e-13 -4.84799e-13 -12.5428 -30.5589 -67.173 29.5088 -35.6502 -57.7323 20.3891 -76.0464 28.1912 -2.94991e-09 -2.6186e-09 1.70687e-09 -5.14268e-09 -4.31619e-09 2.6984e-09 -2.94992e-09 -2.6186e-09 1.7069e-09 -7.73091 5.47488 -0.417314 -2.94991e-09 -2.6186e-09 1.70688e-09 -2.90554 0.965183 -0.102902 -2.94992e-09 -2.61861e-09 1.70687e-09 -10.2786 0.731801 -0.0259123 -2.9499e-09 -2.6186e-09 1.70686e-09 -2.22167 -0.733487 0.20892 -2.03217e-16 0.0 -3.88251e-19 -3.59487 -60.759 -17.4107 -1.45316 67.2038 2.05714 -0.928971 2.94107 -7.26939 2.03217e-16 0.0 3.88251e-19 -5.85503 -11.8577 -0.986159 -0.12483 27.7412 -1.11713 5.97 -17.3579 14.8891
-12.9324 82.593 111.357 -174.888 19.1536 178.788 1.83279 -11.1372 -3.51988 2.31053 -2.91002 -0.63549 -4.11281 1.18765 -1.16685 3.88279 16.58 2.1286 -0.0 0.0 0.0 -0.0 0.0 0.0 -3.00581e-13 -1.39954e-13 -6.297e-13 36.6652 55.9745 45.6754 22.1315 -51.4944 -108.748 -0.181038 -12.036 -1.71714 -2.76271e-09 1.53209e-09 -2.82487e-09 -4.74916e-09 2.67273e-09 -4.91488e-09 -2.76271e-09 1.53209e-09 -2.82487e-09 7.73091 5.47488 0.417314 -2.76271e-09 1.53209e-09 -2.82488e-09 2.90554 0.965183 0.102902 -2.7627e-09 1.53209e-09 -2.82487e-09 10.2786 0.731801 0.0259123 -2.76271e-09 1.53209e-09 -2.82487e-09 2.22167 -0.733487 -0.20892 -3.00613e-13 -1.39935e-13 -6.29949e-13 -20.9735 -24.1242 -80.1954 28.3245 -33.1518 -72.3111 111.754 -80.7752 120.077 -3.72753e-09 -3.28639e-09 2.19102e-09 -6.49891e-09 -5.42207e-09 3.46348e-09 -3.72754e-09 -3.2864e-09 2.19105e-09 -7.73091 5.47488 -0.417314 -3.72753e-09 -3.28639e-09 2.19103e-09 -2.90554 0.965183 -0.102902 -3.72754e-09 -3.2864e-09 2.19102e-09 -10.2786 0.731801 -0.0259123 -3.72753e-09 -3.28639e-09 2.19101e-09 -2.22167 -0.733487 0.20892 -2.03217e-16 0.0 -3.88251e-19 -19.2312 -71.8386 -34.878 -6.65082 82.1706 7.25968 -1.04932 2.7838 -8.88979 2.03217e-16 0.0 3.88251e-19 -6.9528 -13.5035 -1.19815 0.00509185 33.2536 -1.44304 8.56958 -21.2066 18.5721
-12.9582 82.5844 111.371 -174.889 19.1042 178.853 1.96764 -11.9037 -3.70513 2.43422 -3.15088 -0.658647 -4.46338 1.25504 -1.30229 4.26568 17.7149 2.17227 -0.0 0.0 0.0 -0.0 0.0 0.0 -3.21885e-13 -1.16957e-13 -7.75671e-13 33.9188 57.8482 53.3507 22.6309 -62.5303 -107.664 -0.217762 -12.7714 -1.82754 -3.29534e-09 1.87322e-09 -3.34522e-09 -5.66362e-09 3.26893e-09 -5.82049e-09 -3.29534e-09 1.87322e-09 -3.34523e-09 7.73091 5.47488 0.417314 -3.29534e-09 1.87322e-09 -3.34523e-09 2.90554 0.965183 0.102902 -3.29533e-09 1.87322e-09 -3.34522e-09 10.2786 0.731801 0.0259123 -3.29534e-09 1.87322e-09 -3.34522e-09 2.22167 -0.733487 -0.20892 -3.21939e-13 -1.16937e-13 -7.75945e-13 -23.7849 -20.4975 -83.9275 28.2425 -31.0605 -77.1152 134.128 -75.8779 142.536 -4.37524e-09 -3.78244e-09 2.6422e-09 -7.62936e-09 -6.2534e-09 4.17624e-09 -4.37525e-09 -3.78244e-09 2.64222e-09 -7.73091 5.47488 -0.417314 -4.37524e-09 -3.78244e-09 2.64221e-09 -2.90554 0.965183 -0.102902 -4.37524e-09 -3.78244e-09 2.6422e-09 -10.2786 0.731801 -0.0259123 -4.37523e-09 -3.78244e-09 2.64219e-09 -2.22167 -0.733487 0.20892 -2.03217e-16 0.0 -3.88251e-19 -32.1969 -75.1815 -48.5014 -29.0057 87.8532 29.6034 -1.09734 2.72127 -9.52316 2.03217e-16 0.0 3.88251e-19 -7.34343 -14.2081 -1.22505 0.0774429 35.4249 -1.58433 9.68615 -22.6614 19.9703
